<svg width="100%" height="100%" viewBox="0 0 0 0" fill="none" xmlns="http://www.w3.org/2000/svg">
  <g id="success">
    <path opacity="0.1" fill-rule="evenodd" clip-rule="evenodd" d="M73.7473 17.7663C65.4006 14.0472 56.0752 13.1259 47.162 15.1397C38.2488 17.1535 30.2254 21.9946 24.2884 28.9409C18.3513 35.8873 14.8188 44.5667 14.2175 53.6847C13.6163 62.8027 15.9786 71.8709 20.9521 79.5367C25.9256 87.2024 33.2439 93.0551 41.8155 96.2219C50.387 99.3886 59.7526 99.6998 68.5155 97.1088C77.2783 94.518 84.9689 89.1639 90.4402 81.8451C95.9115 74.5263 98.8705 65.6349 98.8757 56.4971V52.1681C98.8757 49.5678 100.984 47.4598 103.584 47.4598C106.184 47.4598 108.292 49.5678 108.292 52.1681V56.4998C108.286 67.6682 104.669 78.5381 97.9823 87.4833C91.2952 96.4285 81.8956 102.972 71.1854 106.139C60.4753 109.306 49.0285 108.925 38.5521 105.055C28.0757 101.185 19.1312 94.0312 13.0524 84.6619C6.97366 75.2927 4.0864 64.2094 4.82125 53.0651C5.5561 41.9209 9.87369 31.3127 17.1301 22.8227C24.3865 14.3328 34.1929 8.41588 45.0868 5.95455C55.9806 3.49322 67.3783 4.61932 77.5799 9.16488C79.9551 10.2232 81.0227 13.0067 79.9643 15.3819C78.906 17.7571 76.1225 18.8247 73.7473 17.7663Z"/>
    <path fill-rule="evenodd" clip-rule="evenodd" d="M106.912 15.5024C108.752 17.3402 108.753 20.3213 106.916 22.161L59.8323 69.2914C58.9494 70.1751 57.7516 70.6718 56.5025 70.6721C55.2533 70.6724 54.0553 70.1763 53.172 69.293L39.047 55.168C37.2083 53.3293 37.2083 50.3482 39.047 48.5095C40.8857 46.6707 43.8669 46.6707 45.7056 48.5095L56.4996 59.3035L100.254 15.5057C102.091 13.6661 105.073 13.6646 106.912 15.5024Z"/>
  </g>
</svg>
