<svg width="100%" height="100%" viewBox="0 0 0 0" fill="none" xmlns="http://www.w3.org/2000/svg">
  <g id="sm">
    <path d="M35.24 14.2004V25.9204C35.24 26.8804 34.44 27.6804 33.48 27.6804C32.52 27.6804 31.72 26.8804 31.72 25.9204V14.2004C31.72 13.2404 32.52 12.4404 33.48 12.4404C34.48 12.4404 35.24 13.2004 35.24 14.2004ZM30.16 25.8804V21.4004C30.16 20.4404 29.36 19.6404 28.4 19.6404C27.44 19.6404 26.64 20.4404 26.64 21.4004V25.8804C26.64 26.8404 27.44 27.6404 28.4 27.6404C29.36 27.6404 30.16 26.8404 30.16 25.8804ZM19.48 25.8804V24.0404C19.48 23.0804 18.68 22.3204 17.72 22.3204C16.8 22.3204 16 23.1204 16 24.0804V25.9204C16 26.8804 16.8 27.6804 17.76 27.6804C18.72 27.6404 19.48 26.8804 19.48 25.8804C19.48 25.9204 19.48 25.8804 19.48 25.8804ZM24.84 17.4004V25.8804C24.84 26.8404 24.04 27.6404 23.08 27.6404C22.12 27.6404 21.32 26.8404 21.32 25.8804V17.4004C21.32 16.4404 22.12 15.6404 23.08 15.6404C24.04 15.6404 24.8 16.4404 24.84 17.4004ZM24.04 17.6404C24.04 17.1204 23.6 16.7204 23.12 16.7204C22.6 16.7204 22.2 17.1604 22.2 17.6404C22.2 18.1604 22.6 18.5604 23.12 18.5604C23.6 18.5604 24 18.1604 24.04 17.6404Z" />
  </g>
  <g id="lg">
    <path d="M47.5203 12.0004C45.7203 11.9604 44.0403 12.8004 43.0403 14.2404C42.1603 12.8004 40.6403 11.9604 38.9603 12.0004C38.2803 12.0004 37.6003 12.1204 37.0003 12.4004C36.3603 12.7604 35.8003 13.2404 35.3203 13.8004L35.2803 13.8404V19.8004C35.2803 19.4004 35.2803 19.0404 35.3203 18.7204C35.3603 17.8804 35.5603 17.0404 35.9603 16.2804C36.4003 15.5604 37.2403 15.1204 38.1203 15.2004C39.6803 15.2004 40.4803 16.5604 40.4803 19.2804V25.9204C40.4403 26.8804 41.2003 27.7204 42.1603 27.7604C43.1203 27.8004 43.9603 27.0404 44.0003 26.0804C44.0003 26.0404 44.0003 25.9604 44.0003 25.9204V19.8004C44.0003 18.2004 44.2403 17.0004 44.6803 16.2804C45.1203 15.5604 45.9603 15.1204 46.8003 15.2004C47.5203 15.1604 48.2403 15.5204 48.6003 16.1204C48.9603 16.7204 49.1203 17.7604 49.1203 19.2404V25.9204C49.1203 26.8804 49.9203 27.6804 50.8803 27.6804C51.8403 27.6804 52.6403 26.8804 52.6403 25.9204V18.2404C52.6403 14.0804 50.9203 12.0004 47.5203 12.0004Z" />
    <path d="M70.64 12.9599C71.6 12.9599 72.4 13.7599 72.4 14.7199V26.5999C72.4 27.4799 71.68 28.1999 70.8 28.1999H70.44C69.56 28.1999 68.84 27.4799 68.84 26.5999C67.4 27.9599 65.84 28.6399 64.16 28.6399C62.16 28.6799 60.24 27.8399 58.92 26.3599C57.52 24.7599 56.8 22.6799 56.88 20.5199C56.8 18.4399 57.56 16.3999 58.92 14.7999C60.2 13.3199 62.08 12.4799 64.04 12.5199C65.8 12.5199 67.4 13.2399 68.8 14.7199C68.84 13.7599 69.64 12.9599 70.64 12.9599ZM60.52 20.5199C60.48 21.7999 60.88 23.0799 61.68 24.0799C62.44 24.9999 63.56 25.4799 64.72 25.4799C65.92 25.5199 67.08 25.0399 67.88 24.1199C69.48 22.0399 69.48 19.1199 67.88 17.0399C67.08 16.1199 65.96 15.6399 64.76 15.6799C63.6 15.6799 62.48 16.1599 61.72 17.0399C60.92 18.0399 60.48 19.2799 60.52 20.5199Z" />
    <path d="M78.5998 36.4799C77.6398 36.4799 76.8398 35.7199 76.8398 34.7199V14.5999C76.8398 13.6799 77.5998 12.9599 78.4798 12.9599H78.6798C79.5998 12.9599 80.3198 13.7199 80.3198 14.5999C81.5598 13.2799 83.2398 12.5199 85.0398 12.5199C87.0398 12.4799 88.9598 13.3199 90.2398 14.8399C91.5998 16.3599 92.3198 18.3199 92.3198 20.6399C92.3998 22.7199 91.6398 24.7599 90.2798 26.3599C87.8398 29.1199 83.6398 29.3999 80.8398 26.9599C80.6798 26.7999 80.4798 26.6399 80.3598 26.4799V34.7199C80.3998 35.7199 79.5998 36.4799 78.5998 36.4799C78.6398 36.4799 78.6398 36.4799 78.5998 36.4799ZM88.7598 20.6799C88.7998 19.3999 88.3998 18.1199 87.5598 17.1199C86.7998 16.1999 85.6798 15.7199 84.5198 15.7199C83.3198 15.6799 82.1598 16.1599 81.3598 17.0799C80.5198 18.0799 80.0798 19.3199 80.1598 20.6399C80.1198 21.9199 80.5198 23.1999 81.3598 24.1599C82.1598 25.0799 83.2798 25.5599 84.4798 25.5199C85.6398 25.5599 86.7598 25.0399 87.5198 24.1599C88.3598 23.1599 88.7998 21.9199 88.7598 20.6799Z" />
    <path d="M109.08 12.9599C110.04 12.9599 110.84 13.7599 110.84 14.7199V26.5999C110.84 27.4799 110.12 28.1999 109.24 28.1999H108.88C108 28.1999 107.28 27.4799 107.28 26.5999C105.84 27.9599 104.28 28.6399 102.6 28.6399C100.6 28.6799 98.6805 27.8399 97.3605 26.3599C95.9605 24.7599 95.2405 22.6799 95.3205 20.5199C95.2405 18.4399 96.0005 16.3999 97.3605 14.7999C98.6405 13.3199 100.52 12.4799 102.48 12.5199C104.24 12.5199 105.84 13.2399 107.24 14.7199C107.28 13.7599 108.08 12.9599 109.08 12.9599ZM98.9605 20.5199C98.9205 21.7999 99.3205 23.0799 100.12 24.0799C100.88 24.9999 102 25.4799 103.16 25.4799C104.36 25.5199 105.52 25.0399 106.32 24.1199C107.92 22.0399 107.92 19.1199 106.32 17.0399C105.52 16.1599 104.4 15.6399 103.2 15.6799C102.04 15.6799 100.92 16.1599 100.16 17.0399C99.3605 18.0399 98.9205 19.2799 98.9605 20.5199Z" />
    <path d="M35.24 14.2004V25.9204C35.24 26.8804 34.44 27.6804 33.48 27.6804C32.52 27.6804 31.72 26.8804 31.72 25.9204V14.2004C31.72 13.2404 32.52 12.4404 33.48 12.4404C34.48 12.4404 35.24 13.2004 35.24 14.2004ZM30.16 25.8804V21.4004C30.16 20.4404 29.36 19.6404 28.4 19.6404C27.44 19.6404 26.64 20.4404 26.64 21.4004V25.8804C26.64 26.8404 27.44 27.6404 28.4 27.6404C29.36 27.6404 30.16 26.8404 30.16 25.8804ZM19.48 25.8804V24.0404C19.48 23.0804 18.68 22.3204 17.72 22.3204C16.8 22.3204 16 23.1204 16 24.0804V25.9204C16 26.8804 16.8 27.6804 17.76 27.6804C18.72 27.6404 19.48 26.8804 19.48 25.8804C19.48 25.9204 19.48 25.8804 19.48 25.8804ZM24.84 17.4004V25.8804C24.84 26.8404 24.04 27.6404 23.08 27.6404C22.12 27.6404 21.32 26.8404 21.32 25.8804V17.4004C21.32 16.4404 22.12 15.6404 23.08 15.6404C24.04 15.6404 24.8 16.4404 24.84 17.4004ZM24.04 17.6404C24.04 17.1204 23.6 16.7204 23.12 16.7204C22.6 16.7204 22.2 17.1604 22.2 17.6404C22.2 18.1604 22.6 18.5604 23.12 18.5604C23.6 18.5604 24 18.1604 24.04 17.6404Z" />
  </g>
</svg>
