<svg width="100%" height="100%" viewBox="0 0 0 0" fill="none" xmlns="http://www.w3.org/2000/svg">

  // Arrows
  <g id="arrow-down">
    <path fill-rule="evenodd" clip-rule="evenodd" d="M20 12L18.59 10.59L13 16.17V4H11V16.17L5.42 10.58L4 12L12 20L20 12Z" />
  </g>
  <g id="arrow-left">
    <path fill-rule="evenodd" clip-rule="evenodd" d="M20 11H7.83L13.42 5.41L12 4L4 12L12 20L13.41 18.59L7.83 13H20V11Z" />
  </g>
  <g id="arrow-right">
    <path fill-rule="evenodd" clip-rule="evenodd" d="M12 4L10.59 5.41L16.17 11H4V13H16.17L10.59 18.59L12 20L20 12L12 4Z" />
  </g>
  <g id="arrow-up">
    <path fill-rule="evenodd" clip-rule="evenodd" d="M4 12L5.41 13.41L11 7.83V20H13V7.83L18.58 13.42L20 12L12 4L4 12V12Z" />
  </g>
  <g id="caret-down">
    <path fill-rule="evenodd" clip-rule="evenodd" d="M7 10L12 15L17 10H7Z" />
  </g>
  <g id="chevron-down">
    <path fill-rule="evenodd" clip-rule="evenodd" d="M7.41 8.84003L12 13.42L16.59 8.84003L18 10.25L12 16.25L6 10.25L7.41 8.84003Z" />
  </g>
  <g id="chevron-left">
    <path fill-rule="evenodd" clip-rule="evenodd" d="M15.41 17.09L10.83 12.5L15.41 7.91L14 6.5L8 12.5L14 18.5L15.41 17.09Z" />
  </g>
  <g id="chevron-right">
    <path fill-rule="evenodd" clip-rule="evenodd" d="M8.58984 16.34L13.1698 11.75L8.58984 7.16L9.99984 5.75L15.9998 11.75L9.99984 17.75L8.58984 16.34Z" />
  </g>
  <g id="chevron-up">
    <path fill-rule="evenodd" clip-rule="evenodd" d="M7.41 15.41L12 10.83L16.59 15.41L18 14L12 8L6 14L7.41 15.41Z" />
  </g>
  <g id="toggle-up">
    <path fill-rule="evenodd" clip-rule="evenodd" d="M7 10L12 5L17 10H7Z" />
  </g>
  <g id="toggle-down">
    <path fill-rule="evenodd" clip-rule="evenodd" d="M17 14L12 19L7 14L17 14Z" />
  </g>

  // Signs
  <g id="dollar-sign">
    <path fill-rule="evenodd" clip-rule="evenodd" d="M11.8001 10.9C9.53007 10.31 8.80007 9.7 8.80007 8.75C8.80007 7.66 9.81007 6.9 11.5001 6.9C13.2801 6.9 13.9401 7.75 14.0001 9H16.2101C16.1401 7.28 15.0901 5.7 13.0001 5.19V3H10.0001V5.16C8.06007 5.58 6.50007 6.84 6.50007 8.77C6.50007 11.08 8.41007 12.23 11.2001 12.9C13.7001 13.5 14.2001 14.38 14.2001 15.31C14.2001 16 13.7101 17.1 11.5001 17.1C9.44007 17.1 8.63007 16.18 8.52007 15H6.32007C6.44007 17.19 8.08007 18.42 10.0001 18.83V21H13.0001V18.85C14.9501 18.48 16.5001 17.35 16.5001 15.3C16.5001 12.46 14.0701 11.49 11.8001 10.9Z" />
  </g>
  <g id="plus-sign">
    <path fill-rule="evenodd" clip-rule="evenodd" d="M19 13H13V19H11V13H5V11H11V5H13V11H19V13Z" />
  </g>

  // Actions
  <g id="add">
    <path fill-rule="evenodd" clip-rule="evenodd" d="M19 13H13V19H11V13H5V11H11V5H13V11H19V13Z" />
  </g>
  <g id="cancel">
    <path fill-rule="evenodd" clip-rule="evenodd" d="M19 6.41L17.59 5L12 10.59L6.41 5L5 6.41L10.59 12L5 17.59L6.41 19L12 13.41L17.59 19L19 17.59L13.41 12L19 6.41Z" />
  </g>
  <g id="confirm">
    <path fill-rule="evenodd" clip-rule="evenodd" d="M8.99991 16.17L4.82991 12L3.40991 13.41L8.99991 19L20.9999 7.00003L19.5899 5.59003L8.99991 16.17Z" />
  </g>
  <g id="decode">
    <path fill-rule="evenodd" clip-rule="evenodd" d="M17.6498 6.35C16.1998 4.9 14.2098 4 11.9998 4C7.57977 4 4.00977 7.58 4.00977 12C4.00977 16.42 7.57977 20 11.9998 20C15.7298 20 18.8398 17.45 19.7298 14H17.6498C16.8298 16.33 14.6098 18 11.9998 18C8.68977 18 5.99977 15.31 5.99977 12C5.99977 8.69 8.68977 6 11.9998 6C13.6598 6 15.1398 6.69 16.2198 7.78L12.9998 11H19.9998V4L17.6498 6.35Z" />
  </g>
  <g id="delete">
    <path fill-rule="evenodd" clip-rule="evenodd" d="M6 19C6 20.1 6.9 21 8 21H16C17.1 21 18 20.1 18 19V7H6V19ZM8.46 11.88L9.87 10.47L12 12.59L14.12 10.47L15.53 11.88L13.41 14L15.53 16.12L14.12 17.53L12 15.41L9.88 17.53L8.47 16.12L10.59 14L8.46 11.88ZM15.5 4L14.5 3H9.5L8.5 4H5V6H19V4H15.5Z" />
  </g>
  <g id="download">
    <path fill-rule="evenodd" clip-rule="evenodd" d="M19 9H15V3H9V9H5L12 16L19 9ZM5 18V20H19V18H5Z" />
  </g>
  <g id="edit">
    <path fill-rule="evenodd" clip-rule="evenodd" d="M3 17.25V21H6.75L17.81 9.94L14.06 6.19L3 17.25ZM20.71 7.04C21.1 6.65 21.1 6.02 20.71 5.63L18.37 3.29C17.98 2.9 17.35 2.9 16.96 3.29L15.13 5.12L18.88 8.87L20.71 7.04Z" />
  </g>
  <g id="emoji">
    <path fill-rule="evenodd" clip-rule="evenodd" d="M11.99 2C6.47 2 2 6.48 2 12C2 17.52 6.47 22 11.99 22C17.52 22 22 17.52 22 12C22 6.48 17.52 2 11.99 2ZM12 20C7.58 20 4 16.42 4 12C4 7.58 7.58 4 12 4C16.42 4 20 7.58 20 12C20 16.42 16.42 20 12 20ZM15.5 11C16.33 11 17 10.33 17 9.5C17 8.67 16.33 8 15.5 8C14.67 8 14 8.67 14 9.5C14 10.33 14.67 11 15.5 11ZM8.5 11C9.33 11 10 10.33 10 9.5C10 8.67 9.33 8 8.5 8C7.67 8 7 8.67 7 9.5C7 10.33 7.67 11 8.5 11ZM12 17.5C14.33 17.5 16.31 16.04 17.11 14H6.89C7.69 16.04 9.67 17.5 12 17.5Z" />
  </g>
  <g id="like">
    <path fill-rule="evenodd" clip-rule="evenodd" d="M16.5 3C14.76 3 13.09 3.81 12 5.09C10.91 3.81 9.24 3 7.5 3C4.42 3 2 5.42 2 8.5C2 12.28 5.4 15.36 10.55 20.04L12 21.35L13.45 20.03C18.6 15.36 22 12.28 22 8.5C22 5.42 19.58 3 16.5 3ZM12.1 18.55L12 18.65L11.9 18.55C7.14 14.24 4 11.39 4 8.5C4 6.5 5.5 5 7.5 5C9.04 5 10.54 5.99 11.07 7.36H12.94C13.46 5.99 14.96 5 16.5 5C18.5 5 20 6.5 20 8.5C20 11.39 16.86 14.24 12.1 18.55Z" />
  </g>
  <g id="play">
    <path fill-rule="evenodd" clip-rule="evenodd" d="M8 5V19L19 12L8 5Z" />
  </g>
  <g id="power">
    <path fill-rule="evenodd" clip-rule="evenodd" d="M13 3H11V13H13V3ZM17.83 5.17L16.41 6.59C17.99 7.86 19 9.81 19 12C19 15.87 15.87 19 12 19C8.13 19 5 15.87 5 12C5 9.81 6.01 7.86 7.58 6.58L6.17 5.17C4.23 6.82 3 9.26 3 12C3 16.97 7.03 21 12 21C16.97 21 21 16.97 21 12C21 9.26 19.77 6.82 17.83 5.17Z" />
  </g>
  <g id="print">
    <path fill-rule="evenodd" clip-rule="evenodd" d="M19 8H5C3.34 8 2 9.34 2 11V17H6V21H18V17H22V11C22 9.34 20.66 8 19 8ZM16 19H8V14H16V19ZM19 12C18.45 12 18 11.55 18 11C18 10.45 18.45 10 19 10C19.55 10 20 10.45 20 11C20 11.55 19.55 12 19 12ZM18 3H6V7H18V3Z" />
  </g>
  <g id="refresh">
    <path fill-rule="evenodd" clip-rule="evenodd" d="M12 4V1L8 5L12 9V6C15.31 6 18 8.69 18 12C18 13.01 17.75 13.97 17.3 14.8L18.76 16.26C19.54 15.03 20 13.57 20 12C20 7.58 16.42 4 12 4ZM12 18C8.69 18 6 15.31 6 12C6 10.99 6.25 10.03 6.7 9.2L5.24 7.74C4.46 8.97 4 10.43 4 12C4 16.42 7.58 20 12 20V23L16 19L12 15V18Z" />
  </g>
  <g id="save">
    <path fill-rule="evenodd" clip-rule="evenodd" d="M17 3H5C3.89 3 3 3.9 3 5V19C3 20.1 3.89 21 5 21H19C20.1 21 21 20.1 21 19V7L17 3ZM12 19C10.34 19 9 17.66 9 16C9 14.34 10.34 13 12 13C13.66 13 15 14.34 15 16C15 17.66 13.66 19 12 19ZM15 9H5V5H15V9Z" />
  </g>
  <g id="search">
    <path fill-rule="evenodd" clip-rule="evenodd" d="M15.5 14H14.71L14.43 13.73C15.41 12.59 16 11.11 16 9.5C16 5.91 13.09 3 9.5 3C5.91 3 3 5.91 3 9.5C3 13.09 5.91 16 9.5 16C11.11 16 12.59 15.41 13.73 14.43L14 14.71V15.5L19 20.49L20.49 19L15.5 14ZM9.5 14C7.01 14 5 11.99 5 9.5C5 7.01 7.01 5 9.5 5C11.99 5 14 7.01 14 9.5C14 11.99 11.99 14 9.5 14Z" />
  </g>
  <g id="send">
    <path fill-rule="evenodd" clip-rule="evenodd" d="M2.01 21L23 12L2.01 3L2 10L17 12L2 14L2.01 21Z" />
  </g>
  <g id="sort">
    <path fill-rule="evenodd" clip-rule="evenodd" d="M16.9998 9.99994H6.99976L11.9998 4.99994L16.9998 9.99994ZM6.99976 13.9999H16.9998L11.9998 18.9999L6.99976 13.9999Z" />
  </g>
  <g id="trash">
    <path fill-rule="evenodd" clip-rule="evenodd" d="M6 19C6 20.1 6.9 21 8 21H16C17.1 21 18 20.1 18 19V7H6V19ZM19 4H15.5L14.5 3H9.5L8.5 4H5V6H19V4Z" />
  </g>
  <g id="undo">
    <path fill-rule="evenodd" clip-rule="evenodd" d="M12.5 8C9.85 8 7.45 8.99 5.6 10.6L2 7V16H11L7.38 12.38C8.77 11.22 10.54 10.5 12.5 10.5C16.04 10.5 19.05 12.81 20.1 16L22.47 15.22C21.08 11.03 17.15 8 12.5 8Z" />
  </g>
  <g id="upload">
    <path fill-rule="evenodd" clip-rule="evenodd" d="M19.35 10.04C18.67 6.59 15.64 4 12 4C9.11 4 6.6 5.64 5.35 8.04C2.34 8.36 0 10.91 0 14C0 17.31 2.69 20 6 20H19C21.76 20 24 17.76 24 15C24 12.36 21.95 10.22 19.35 10.04ZM14 13V17H10V13H7L12 8L17 13H14Z" />
  </g>
  <g id="view">
    <path fill-rule="evenodd" clip-rule="evenodd" d="M12 4.5C7 4.5 2.73 7.61 1 12C2.73 16.39 7 19.5 12 19.5C17 19.5 21.27 16.39 23 12C21.27 7.61 17 4.5 12 4.5ZM12 17C9.24 17 7 14.76 7 12C7 9.24 9.24 7 12 7C14.76 7 17 9.24 17 12C17 14.76 14.76 17 12 17ZM12 9C10.34 9 9 10.34 9 12C9 13.66 10.34 15 12 15C13.66 15 15 13.66 15 12C15 10.34 13.66 9 12 9Z" />
  </g>

  // Icons
  <g id="activity">
    <path fill-rule="evenodd" clip-rule="evenodd" d="M13 3C8.03 3 4 7.03 4 12H1L4.89 15.89L4.96 16.03L9 12H6C6 8.13 9.13 5 13 5C16.87 5 20 8.13 20 12C20 15.87 16.87 19 13 19C11.07 19 9.32 18.21 8.06 16.94L6.64 18.36C8.27 19.99 10.51 21 13 21C17.97 21 22 16.97 22 12C22 7.03 17.97 3 13 3ZM12 8V13L16.28 15.54L17 14.33L13.5 12.25V8H12Z" />
  </g>
  <g id="attachment">
    <path fill-rule="evenodd" clip-rule="evenodd" d="M16.5 6V17.5C16.5 19.71 14.71 21.5 12.5 21.5C10.29 21.5 8.5 19.71 8.5 17.5V5C8.5 3.62 9.62 2.5 11 2.5C12.38 2.5 13.5 3.62 13.5 5V15.5C13.5 16.05 13.05 16.5 12.5 16.5C11.95 16.5 11.5 16.05 11.5 15.5V6H10V15.5C10 16.88 11.12 18 12.5 18C13.88 18 15 16.88 15 15.5V5C15 2.79 13.21 1 11 1C8.79 1 7 2.79 7 5V17.5C7 20.54 9.46 23 12.5 23C15.54 23 18 20.54 18 17.5V6H16.5Z" />
  </g>
  <g id="calendar">
    <path fill-rule="evenodd" clip-rule="evenodd" d="M9 11H7V13H9V11ZM13 11H11V13H13V11ZM17 11H15V13H17V11ZM19 4H18V2H16V4H8V2H6V4H5C3.89 4 3.01 4.9 3.01 6L3 20C3 21.1 3.89 22 5 22H19C20.1 22 21 21.1 21 20V6C21 4.9 20.1 4 19 4ZM19 20H5V9H19V20Z" />
  </g>
  <g id="car">
    <path fill-rule="evenodd" clip-rule="evenodd" d="M18.92 6.01C18.72 5.42 18.16 5 17.5 5H6.5C5.84 5 5.29 5.42 5.08 6.01L3 12V20C3 20.55 3.45 21 4 21H5C5.55 21 6 20.55 6 20V19H18V20C18 20.55 18.45 21 19 21H20C20.55 21 21 20.55 21 20V12L18.92 6.01ZM6.5 16C5.67 16 5 15.33 5 14.5C5 13.67 5.67 13 6.5 13C7.33 13 8 13.67 8 14.5C8 15.33 7.33 16 6.5 16ZM17.5 16C16.67 16 16 15.33 16 14.5C16 13.67 16.67 13 17.5 13C18.33 13 19 13.67 19 14.5C19 15.33 18.33 16 17.5 16ZM5 11L6.5 6.5H17.5L19 11H5Z" />
  </g>
  <g id="clock">
    <path fill-rule="evenodd" clip-rule="evenodd" d="M11.99 2C6.47 2 2 6.48 2 12C2 17.52 6.47 22 11.99 22C17.52 22 22 17.52 22 12C22 6.48 17.52 2 11.99 2ZM12 20C7.58 20 4 16.42 4 12C4 7.58 7.58 4 12 4C16.42 4 20 7.58 20 12C20 16.42 16.42 20 12 20Z" />
    <path fill-rule="evenodd" clip-rule="evenodd" d="M12.5 7H11V13L16.25 16.15L17 14.92L12.5 12.25V7Z" />
  </g>
  <g id="comments">
    <path fill-rule="evenodd" clip-rule="evenodd" d="M21.99 4C21.99 2.9 21.1 2 20 2H4C2.9 2 2 2.9 2 4V16C2 17.1 2.9 18 4 18H18L22 22L21.99 4ZM18 14H6V12H18V14ZM18 11H6V9H18V11ZM18 8H6V6H18V8Z" />
  </g>
  <g id="dashboard">
    <path fill-rule="evenodd" clip-rule="evenodd" d="M19 3H5C3.9 3 3 3.9 3 5V19C3 20.1 3.9 21 5 21H19C20.1 21 21 20.1 21 19V5C21 3.9 20.1 3 19 3ZM9 17H7V10H9V17ZM13 17H11V7H13V17ZM17 17H15V13H17V17Z" />
  </g>
  <g id="document">
    <path fill-rule="evenodd" clip-rule="evenodd" d="M6 2C4.9 2 4.01 2.9 4.01 4L4 20C4 21.1 4.89 22 5.99 22H18C19.1 22 20 21.1 20 20V8L14 2H6ZM13 9V3.5L18.5 9H13Z" />
  </g>
  <g id="email">
    <path fill-rule="evenodd" clip-rule="evenodd" d="M20 4H4C2.9 4 2.01 4.9 2.01 6L2 18C2 19.1 2.9 20 4 20H20C21.1 20 22 19.1 22 18V6C22 4.9 21.1 4 20 4ZM20 8L12 13L4 8V6L12 11L20 6V8Z" />
  </g>
  <g id="filters">
    <path fill-rule="evenodd" clip-rule="evenodd" d="M3 18H9V16H3V18ZM3 6V8H21V6H3ZM3 13H15V11H3V13Z"/>
  </g>
  <g id="folder">
    <path fill-rule="evenodd" clip-rule="evenodd" d="M10 4H4C2.9 4 2.01 4.9 2.01 6L2 18C2 19.1 2.9 20 4 20H20C21.1 20 22 19.1 22 18V8C22 6.9 21.1 6 20 6H12L10 4Z" />
  </g>
  <g id="folder-open">
    <path fill-rule="evenodd" clip-rule="evenodd" d="M6 12C4.9 12 5 12 4.01 14L2.21294 17.5762C2.07292 17.8549 1.98245 18.1669 2.05612 18.4699C2.26891 19.3451 3.0617 20 4 20H20C21.1 20 21 20 22 18L24 14C25 12 23.1 12 22 12H6Z" />
    <path d="M4.0001 4H10.0001L12.0001 6H20.0001C21.1001 6 22.0001 6.9 22.0001 8V10.5H5.70486C4.50024 10.5 4.44073 10.4617 3.96539 11.3197C3.80597 11.6075 3.61491 11.9523 3.36415 12.3636L2.94497 13.1452C2.69915 13.6036 2.00391 13.4286 2.00435 12.9085L2.0101 6C2.0101 4.9 2.9001 4 4.0001 4Z" />
  </g>
  <g id="info">
    <path fill-rule="evenodd" clip-rule="evenodd" d="M11 17H13V11H11V17ZM12 2C6.48 2 2 6.48 2 12C2 17.52 6.48 22 12 22C17.52 22 22 17.52 22 12C22 6.48 17.52 2 12 2ZM12 20C7.59 20 4 16.41 4 12C4 7.59 7.59 4 12 4C16.41 4 20 7.59 20 12C20 16.41 16.41 20 12 20ZM11 9H13V7H11V9Z" />
  </g>
  <g id="list">
    <path fill-rule="evenodd" clip-rule="evenodd" d="M3 13H5V11H3V13ZM3 17H5V15H3V17ZM3 9H5V7H3V9ZM7 13H21V11H7V13ZM7 17H21V15H7V17ZM7 7V9H21V7H7Z" />
  </g>
  <g id="loader">
    <path fill-rule="evenodd" clip-rule="evenodd" d="M13 1V7H11V1H13Z" />
    <path opacity="0.125" fill-rule="evenodd" clip-rule="evenodd" d="M4.92984 3.51581L9.17405 7.76002L7.75984 9.17424L3.51562 4.93002L4.92984 3.51581Z" />
    <path opacity="0.25" fill-rule="evenodd" clip-rule="evenodd" d="M1 11H7V13H1V11Z" />
    <path opacity="0.375" fill-rule="evenodd" clip-rule="evenodd" d="M9.17405 16.24L4.92984 20.4842L3.51562 19.07L7.75984 14.8258L9.17405 16.24Z" />
    <path opacity="0.5" fill-rule="evenodd" clip-rule="evenodd" d="M13 17V23H11V17H13Z" />
    <path opacity="0.625" fill-rule="evenodd" clip-rule="evenodd" d="M16.2399 14.8258L20.4841 19.07L19.0699 20.4842L14.8257 16.24L16.2399 14.8258Z" />
    <path opacity="0.75" fill-rule="evenodd" clip-rule="evenodd" d="M17 11H23V13H17V11Z" />
    <path opacity="0.875" fill-rule="evenodd" clip-rule="evenodd" d="M20.4841 4.93002L16.2399 9.17424L14.8257 7.76002L19.0699 3.51581L20.4841 4.93002Z" />
  </g>
  <g id="menu">
    <path fill-rule="evenodd" clip-rule="evenodd" d="M3 18H21V16H3V18ZM3 13H21V11H3V13ZM3 6V8H21V6H3Z" />
  </g>
  <g id="notification">
    <path fill-rule="evenodd" clip-rule="evenodd" d="M12 22C12.14 22 12.27 21.99 12.4 21.96C13.05 21.82 13.58 21.38 13.84 20.78C13.94 20.54 13.99 20.28 13.99 20H9.99C10 21.1 10.89 22 12 22ZM18 11C18 7.93 16.36 5.36 13.5 4.68V4C13.5 3.17 12.83 2.5 12 2.5C11.17 2.5 10.5 3.17 10.5 4V4.68C7.63 5.36 6 7.92 6 11V16L4 18V19H20V18L18 16V11Z" />
  </g>
  <g id="password">
    <path fill-rule="evenodd" clip-rule="evenodd" d="M12 17C13.1 17 14 16.1 14 15C14 13.9 13.1 13 12 13C10.9 13 10 13.9 10 15C10 16.1 10.9 17 12 17ZM18 8H17V6C17 3.24 14.76 1 12 1C9.24 1 7 3.24 7 6V8H6C4.9 8 4 8.9 4 10V20C4 21.1 4.9 22 6 22H18C19.1 22 20 21.1 20 20V10C20 8.9 19.1 8 18 8ZM8.9 6C8.9 4.29 10.29 2.9 12 2.9C13.71 2.9 15.1 4.29 15.1 6V8H8.9V6ZM18 20H6V10H18V20Z" />
  </g>
  <g id="phone">
    <path fill-rule="evenodd" clip-rule="evenodd" d="M6.62 10.79C8.06 13.62 10.38 15.93 13.21 17.38L15.41 15.18C15.68 14.91 16.08 14.82 16.43 14.94C17.55 15.31 18.76 15.51 20 15.51C20.55 15.51 21 15.96 21 16.51V20C21 20.55 20.55 21 20 21C10.61 21 3 13.39 3 4C3 3.45 3.45 3 4 3H7.5C8.05 3 8.5 3.45 8.5 4C8.5 5.25 8.7 6.45 9.07 7.57C9.18 7.92 9.1 8.31 8.82 8.59L6.62 10.79Z" />
  </g>
  <g id="settings">
    <path fill-rule="evenodd" clip-rule="evenodd" d="M19.4301 12.98C19.4701 12.66 19.5001 12.34 19.5001 12C19.5001 11.66 19.4701 11.34 19.4301 11.02L21.5401 9.37C21.7301 9.22 21.7801 8.95 21.6601 8.73L19.6601 5.27C19.5401 5.05 19.2701 4.97 19.0501 5.05L16.5601 6.05C16.0401 5.65 15.4801 5.32 14.8701 5.07L14.4901 2.42C14.4601 2.18 14.2501 2 14.0001 2H10.0001C9.75008 2 9.54008 2.18 9.51008 2.42L9.13008 5.07C8.52008 5.32 7.96008 5.66 7.44008 6.05L4.95008 5.05C4.72008 4.96 4.46008 5.05 4.34008 5.27L2.34008 8.73C2.21008 8.95 2.27008 9.22 2.46008 9.37L4.57008 11.02C4.53008 11.34 4.50008 11.67 4.50008 12C4.50008 12.33 4.53008 12.66 4.57008 12.98L2.46008 14.63C2.27008 14.78 2.22008 15.05 2.34008 15.27L4.34008 18.73C4.46008 18.95 4.73008 19.03 4.95008 18.95L7.44008 17.95C7.96008 18.35 8.52008 18.68 9.13008 18.93L9.51008 21.58C9.54008 21.82 9.75008 22 10.0001 22H14.0001C14.2501 22 14.4601 21.82 14.4901 21.58L14.8701 18.93C15.4801 18.68 16.0401 18.34 16.5601 17.95L19.0501 18.95C19.2801 19.04 19.5401 18.95 19.6601 18.73L21.6601 15.27C21.7801 15.05 21.7301 14.78 21.5401 14.63L19.4301 12.98ZM12.0001 15.5C10.0701 15.5 8.50008 13.93 8.50008 12C8.50008 10.07 10.0701 8.5 12.0001 8.5C13.9301 8.5 15.5001 10.07 15.5001 12C15.5001 13.93 13.9301 15.5 12.0001 15.5Z" />
  </g>
  <g id="user">
    <path fill-rule="evenodd" clip-rule="evenodd" d="M12 12C14.21 12 16 10.21 16 8C16 5.79 14.21 4 12 4C9.79 4 8 5.79 8 8C8 10.21 9.79 12 12 12ZM12 14C9.33 14 4 15.34 4 18V20H20V18C20 15.34 14.67 14 12 14Z" />
  </g>

  // Circles
  <g id="add-circle">
    <path fill-rule="evenodd" clip-rule="evenodd" d="M12 2C6.48 2 2 6.48 2 12C2 17.52 6.48 22 12 22C17.52 22 22 17.52 22 12C22 6.48 17.52 2 12 2ZM17 13H13V17H11V13H7V11H11V7H13V11H17V13Z" />
  </g>
  <g id="check-circle">
    <path fill-rule="evenodd" clip-rule="evenodd" d="M12 2C6.48 2 2 6.48 2 12C2 17.52 6.48 22 12 22C17.52 22 22 17.52 22 12C22 6.48 17.52 2 12 2ZM10 17L5 12L6.41 10.59L10 14.17L17.59 6.58L19 8L10 17Z" />
  </g>
  <g id="cancel-circle">
    <path fill-rule="evenodd" clip-rule="evenodd" d="M12 2C6.47 2 2 6.47 2 12C2 17.53 6.47 22 12 22C17.53 22 22 17.53 22 12C22 6.47 17.53 2 12 2ZM17 15.59L15.59 17L12 13.41L8.41 17L7 15.59L10.59 12L7 8.41L8.41 7L12 10.59L15.59 7L17 8.41L13.41 12L17 15.59Z" />
  </g>
  <g id="caret-down-circle">
    <path fill-rule="evenodd" clip-rule="evenodd" d="M12 2C6.48 2 2 6.48 2 12C2 17.52 6.48 22 12 22C17.52 22 22 17.52 22 12C22 6.48 17.52 2 12 2ZM12 14L8 10H16L12 14Z" />
  </g>
  <g id="star-circle">
    <path fill-rule="evenodd" clip-rule="evenodd" d="M11.99 2C6.47 2 2 6.48 2 12C2 17.52 6.47 22 11.99 22C17.52 22 22 17.52 22 12C22 6.48 17.52 2 11.99 2ZM16.23 18L12 15.45L7.77 18L8.89 13.19L5.16 9.96L10.08 9.54L12 5L13.92 9.53L18.84 9.95L15.11 13.18L16.23 18Z" />
  </g>

  // Forms
  <g id="check">
    <path fill-rule="evenodd" clip-rule="evenodd" d="M9.00016 16.17L4.83016 12L3.41016 13.41L9.00016 19L21.0002 6.99997L19.5902 5.58997L9.00016 16.17Z" />
  </g>
  <g id="radio">
    <path fill-rule="evenodd" clip-rule="evenodd" d="M12 20C16.4183 20 20 16.4183 20 12C20 7.58172 16.4183 4 12 4C7.58172 4 4 7.58172 4 12C4 16.4183 7.58172 20 12 20Z" />
  </g>

  // Feedback
  <g id="error">
    <path opacity="0.2" fill-rule="evenodd" clip-rule="evenodd" d="M12 2C6.48 2 2 6.48 2 12C2 17.52 6.48 22 12 22C17.52 22 22 17.52 22 12C22 6.48 17.52 2 12 2Z" />
    <path fill-rule="evenodd" clip-rule="evenodd" d="M17 15.59L15.59 17L12 13.41L8.41 17L7 15.59L10.59 12L7 8.41L8.41 7L12 10.59L15.59 7L17 8.41L13.41 12L17 15.59Z" />
  </g>
  <g id="help">
    <path opacity="0.2" fill-rule="evenodd" clip-rule="evenodd" d="M12 2C6.48 2 2 6.48 2 12C2 17.52 6.48 22 12 22C17.52 22 22 17.52 22 12C22 6.48 17.52 2 12 2Z" />
    <path fill-rule="evenodd" clip-rule="evenodd" d="M13 19H11V17H13V19Z" />
    <path fill-rule="evenodd" clip-rule="evenodd" d="M15.07 11.25L14.17 12.17C13.45 12.9 13 13.5 13 15H11V14.5C11 13.4 11.45 12.4 12.17 11.67L13.41 10.41C13.78 10.05 14 9.55 14 9C14 7.9 13.1 7 12 7C10.9 7 10 7.9 10 9H8C8 6.79 9.79 5 12 5C14.21 5 16 6.79 16 9C16 9.88 15.64 10.68 15.07 11.25Z" />
  </g>
  <g id="success">
    <path opacity="0.2" fill-rule="evenodd" clip-rule="evenodd" d="M12 2C6.48 2 2 6.48 2 12C2 17.52 6.48 22 12 22C17.52 22 22 17.52 22 12C22 6.48 17.52 2 12 2Z" />
    <path fill-rule="evenodd" clip-rule="evenodd" d="M10 17L5 12L6.41 10.59L10 14.17L17.59 6.58002L19 8.00002L10 17Z" />
  </g>
  <g id="warning">
    <path opacity="0.2" fill-rule="evenodd" clip-rule="evenodd" d="M12 2C6.48 2 2 6.48 2 12C2 17.52 6.48 22 12 22C17.52 22 22 17.52 22 12C22 6.48 17.52 2 12 2Z" />
    <path fill-rule="evenodd" clip-rule="evenodd" d="M13 17H11V15H13V17Z" />
    <path fill-rule="evenodd" clip-rule="evenodd" d="M13 13H11V7H13V13Z" />
  </g>

  // Brands
  <g id="google">
    <path transform="scale(1.25)" d="M8.92517 7.93846H15.4285C15.5003 8.33912 15.5361 8.72185 15.5361 9.08663C15.5361 10.3843 15.264 11.5429 14.7199 12.5625C14.1757 13.5821 13.3998 14.379 12.3921 14.9531C11.3845 15.5272 10.2288 15.8142 8.92517 15.8142C7.9863 15.8142 7.09228 15.6333 6.24311 15.2715C5.39394 14.9097 4.66138 14.4208 4.04544 13.8049C3.42949 13.189 2.94062 12.4564 2.57882 11.6072C2.21703 10.7581 2.03613 9.86404 2.03613 8.92517C2.03613 7.9863 2.21703 7.09228 2.57882 6.24311C2.94062 5.39394 3.42949 4.66138 4.04544 4.04543C4.66138 3.42949 5.39394 2.94062 6.24311 2.57882C7.09228 2.21703 7.9863 2.03613 8.92517 2.03613C10.7192 2.03613 12.2591 2.63713 13.5448 3.83912L11.67 5.64211C10.9345 4.93048 10.0195 4.57467 8.92517 4.57467C8.15374 4.57467 7.44062 4.76902 6.7858 5.15773C6.13098 5.54643 5.61221 6.07417 5.22949 6.74095C4.84676 7.40773 4.6554 8.1358 4.6554 8.92517C4.6554 9.71454 4.84676 10.4426 5.22949 11.1094C5.61221 11.7762 6.13098 12.3039 6.7858 12.6926C7.44062 13.0813 8.15374 13.2757 8.92517 13.2757C9.44544 13.2757 9.92384 13.2039 10.3604 13.0604C10.7969 12.9169 11.1557 12.7375 11.4368 12.5222C11.7179 12.3069 11.963 12.0617 12.1723 11.7866C12.3816 11.5115 12.5356 11.2514 12.6343 11.0062C12.733 10.761 12.8003 10.5278 12.8361 10.3066H8.92517V7.93846Z" />
  </g>

  // Menu

  // Custom - Strategies
  <g id="linear">
    <path d="M1 1L79 21" stroke-width="2" stroke-linecap="round"/>
  </g>
  <g id="gradual">
    <path d="M1 1L60 5.5L79 21" stroke-width="2" stroke-linecap="round"/>
  </g>
  <g id="aggressive">
    <path d="M1 1L20 16.5L79 21" stroke-width="2" stroke-linecap="round"/>
  </g>
  <g id="none" transform="translate(30 1)">
    <path fill-rule="evenodd" clip-rule="evenodd" d="M10.0007 2.50004C5.85851 2.50004 2.50065 5.8579 2.50065 10C2.50065 14.1422 5.85851 17.5 10.0007 17.5C14.1428 17.5 17.5006 14.1422 17.5006 10C17.5006 5.8579 14.1428 2.50004 10.0007 2.50004ZM0.833984 10C0.833984 4.93743 4.93804 0.833374 10.0007 0.833374C15.0633 0.833374 19.1673 4.93743 19.1673 10C19.1673 15.0626 15.0633 19.1667 10.0007 19.1667C4.93804 19.1667 0.833984 15.0626 0.833984 10Z" />
    <path fill-rule="evenodd" clip-rule="evenodd" d="M5.83398 9.99996C5.83398 9.53972 6.20708 9.16663 6.66732 9.16663H13.334C13.7942 9.16663 14.1673 9.53972 14.1673 9.99996C14.1673 10.4602 13.7942 10.8333 13.334 10.8333H6.66732C6.20708 10.8333 5.83398 10.4602 5.83398 9.99996Z" />
  </g>
</svg>
